<?xml version="1.0" encoding="iso-8859-1"?>
<!-- Generator: Adobe Illustrator 19.0.0, SVG Export Plug-In . SVG Version: 6.00 Build 0)  -->
<svg version="1.1" id="Capa_1" xmlns="http://www.w3.org/2000/svg" xmlns:xlink="http://www.w3.org/1999/xlink" x="0px" y="0px"
	 viewBox="0 0 512 512" style="enable-background:new 0 0 512 512;" xml:space="preserve">
<polygon style="fill:#F8981D;" points="8.567,145.075 503.467,145.075 256.017,8.551 "/>
<g>
	<path style="fill:#911E3F;" d="M170.689,136.542c-14.139,0-25.598-11.46-25.598-25.598s11.46-25.598,25.598-25.598
		c14.139,0,25.598,11.46,25.598,25.598S184.828,136.542,170.689,136.542z M170.689,102.411c-4.71,0-8.533,3.823-8.533,8.533
		c0,4.71,3.823,8.533,8.533,8.533c4.71,0,8.533-3.823,8.533-8.533C179.222,106.234,175.4,102.411,170.689,102.411z"/>
	<path style="fill:#911E3F;" d="M341.345,136.542c-14.139,0-25.598-11.46-25.598-25.598s11.46-25.598,25.598-25.598
		s25.598,11.46,25.598,25.598S355.483,136.542,341.345,136.542z M341.345,102.411c-4.71,0-8.533,3.823-8.533,8.533
		c0,4.71,3.823,8.533,8.533,8.533c4.71,0,8.533-3.823,8.533-8.533C349.877,106.234,346.055,102.411,341.345,102.411z"/>
	<path style="fill:#911E3F;" d="M247.484,128.01h-17.066v-8.533c0-2.261,0.896-4.437,2.5-6.033l14.565-14.565v-5h-17.066
		c-4.71,0-8.533-3.823-8.533-8.533V71.813l-6.033-6.033l12.065-12.065l8.533,8.533c1.604,1.596,2.5,3.771,2.5,6.033v8.533h17.066
		c4.71,0,8.533,3.823,8.533,8.533v17.066c0,2.261-0.896,4.437-2.5,6.033l-14.565,14.565L247.484,128.01L247.484,128.01z"/>
	<path style="fill:#911E3F;" d="M281.615,128.01H264.55c-3.251,0.017-6.229-1.809-7.679-4.719l-8.533-17.066
		c-0.572-1.186-0.87-2.492-0.853-3.814V85.346c0-4.71,3.823-8.533,8.533-8.533h25.598c4.71,0,8.533,3.823,8.533,8.533v17.066
		h-17.066v-8.533h-8.533v6.519l5.273,10.546h11.792V128.01z"/>
	<path style="fill:#911E3F;" d="M264.55,85.346h-17.066V68.28c0-2.261,0.896-4.437,2.5-6.033l2.5-2.5l-2.5-2.5l12.065-12.065
		l8.533,8.533c3.328,3.336,3.328,8.729,0,12.065l-6.033,6.033L264.55,85.346L264.55,85.346z"/>
</g>
<g>
	<rect x="34.131" y="213.32" style="fill:#FBDC70;" width="34.131" height="187.721"/>
	<rect x="136.524" y="213.32" style="fill:#FBDC70;" width="34.131" height="187.721"/>
	<rect x="8.533" y="435.172" style="fill:#FBDC70;" width="494.9" height="34.131"/>
</g>
<rect x="8.533" y="469.303" style="fill:#F8981D;" width="494.9" height="34.131"/>
<polyline style="fill:#FBDC70;" points="486.402,179.206 8.567,179.206 8.567,145.075 503.467,145.075 503.467,179.206 
	486.402,179.206 "/>
<g>
	<rect x="179.188" y="435.172" style="fill:#911E3F;" width="17.066" height="68.262"/>
	<rect x="315.712" y="435.172" style="fill:#911E3F;" width="17.066" height="68.262"/>
</g>
<g>
	<rect x="17.066" y="179.189" style="fill:#F8981D;" width="68.262" height="34.131"/>
	<rect x="17.066" y="401.041" style="fill:#F8981D;" width="68.262" height="34.131"/>
	<rect x="119.459" y="401.041" style="fill:#F8981D;" width="68.262" height="34.131"/>
	<rect x="221.852" y="401.041" style="fill:#F8981D;" width="68.262" height="34.131"/>
	<rect x="324.245" y="401.041" style="fill:#F8981D;" width="68.262" height="34.131"/>
	<rect x="426.638" y="401.041" style="fill:#F8981D;" width="68.262" height="34.131"/>
	<rect x="119.459" y="179.189" style="fill:#F8981D;" width="68.262" height="34.131"/>
</g>
<rect x="238.917" y="213.32" style="fill:#FBDC70;" width="34.131" height="187.721"/>
<rect x="221.852" y="179.189" style="fill:#F8981D;" width="68.262" height="34.131"/>
<rect x="341.311" y="213.32" style="fill:#FBDC70;" width="34.131" height="187.721"/>
<rect x="324.245" y="179.189" style="fill:#F8981D;" width="68.262" height="34.131"/>
<rect x="443.704" y="213.32" style="fill:#FBDC70;" width="34.131" height="187.721"/>
<rect x="426.638" y="179.189" style="fill:#F8981D;" width="68.262" height="34.131"/>
<path d="M196.288,110.944c0-14.139-11.46-25.598-25.598-25.598c-14.139,0-25.598,11.46-25.598,25.598s11.46,25.598,25.598,25.598
	C184.828,136.542,196.288,125.083,196.288,110.944z M170.689,119.477c-4.71,0-8.533-3.823-8.533-8.533
	c0-4.71,3.823-8.533,8.533-8.533c4.71,0,8.533,3.823,8.533,8.533C179.222,115.654,175.4,119.477,170.689,119.477z"/>
<path d="M366.943,110.944c0-14.139-11.46-25.598-25.598-25.598s-25.598,11.46-25.598,25.598s11.46,25.598,25.598,25.598
	S366.943,125.083,366.943,110.944z M341.345,119.477c-4.71,0-8.533-3.823-8.533-8.533c0-4.71,3.823-8.533,8.533-8.533
	c4.71,0,8.533,3.823,8.533,8.533C349.877,115.654,346.055,119.477,341.345,119.477z"/>
<path d="M221.886,85.346c0,4.71,3.823,8.533,8.533,8.533h17.066v5l-14.565,14.565c-1.604,1.596-2.5,3.771-2.5,6.033v8.533h17.066v-5
	l6.195-6.195l3.234,6.476c1.442,2.893,4.403,4.719,7.637,4.719h17.065v-17.066h-11.792l-5.273-10.546v-6.519h8.533v8.533h17.066
	V85.346c0-4.71-3.823-8.533-8.533-8.533H264.55v-5l6.033-6.033c3.328-3.336,3.328-8.738,0-12.065l-8.533-8.533l-12.065,12.065
	l2.5,2.5l-2.5,2.5c-1.604,1.596-2.5,3.771-2.5,6.033v8.533h-8.533V68.28c0-2.261-0.896-4.437-2.5-6.033l-8.533-8.533L215.853,65.78
	l6.033,6.033L221.886,85.346L221.886,85.346z"/>
<path d="M8.567,511.984h494.9c4.71,0,8.533-3.823,8.533-8.533v-68.262c0-4.71-3.823-8.533-8.533-8.533v-25.598
	c0-4.71-3.823-8.533-8.533-8.533h-8.533V221.87h8.533c4.71,0,8.533-3.823,8.533-8.533v-25.598c4.71,0,8.533-3.823,8.533-8.533
	v-34.131c0-0.111-0.06-0.196-0.06-0.307c-0.034-0.93-0.222-1.852-0.555-2.722c0-0.102,0-0.222-0.077-0.324
	c-0.418-0.93-0.99-1.783-1.707-2.509c-0.256-0.222-0.521-0.435-0.794-0.631c-0.384-0.358-0.794-0.691-1.237-0.973L260.121,1.085
	c-2.56-1.425-5.683-1.425-8.243,0L4.429,137.609c-0.444,0.282-0.853,0.614-1.237,0.973c-0.273,0.196-0.538,0.41-0.794,0.631
	c-0.717,0.725-1.288,1.579-1.707,2.509c0,0.102,0,0.222-0.077,0.324c-0.333,0.87-0.52,1.792-0.555,2.722
	c0,0.111-0.06,0.196-0.06,0.307v34.131c0,4.71,3.823,8.533,8.533,8.533v25.598c0,4.71,3.823,8.533,8.533,8.533h8.567v170.655H17.1
	c-4.71,0-8.533,3.823-8.533,8.533v25.598c-4.71,0-8.533,3.823-8.533,8.533v68.262C0.034,508.161,3.857,511.984,8.567,511.984z
	 M179.222,426.656h-51.197v-17.066h51.197V426.656z M85.362,392.525h-8.533V221.87h8.533c4.71,0,8.533-3.823,8.533-8.533v-25.598
	h17.066v25.598c0,4.71,3.823,8.533,8.533,8.533h8.533v170.655h-8.533c-4.71,0-8.533,3.823-8.533,8.533v25.598H93.895v-25.598
	C93.895,396.348,90.072,392.525,85.362,392.525z M34.165,204.805h-8.533v-17.066h51.197v17.066H34.165z M59.763,221.87v170.655
	H42.698V221.87L59.763,221.87L59.763,221.87z M136.558,204.805h-8.533v-17.066h51.197v17.066H136.558z M162.157,221.87v170.655
	h-17.066V221.87L162.157,221.87L162.157,221.87z M187.755,392.525h-8.533V221.87h8.533c4.71,0,8.533-3.823,8.533-8.533v-25.598
	h17.066v25.598c0,4.71,3.823,8.533,8.533,8.533h8.533v170.655h-8.533c-4.71,0-8.533,3.823-8.533,8.533v25.598h-17.066v-25.598
	C196.288,396.348,192.465,392.525,187.755,392.525z M238.952,204.805h-8.533v-17.066h51.197v17.066H238.952z M264.55,221.87v170.655
	h-17.066V221.87L264.55,221.87L264.55,221.87z M238.952,409.591h42.664v17.066h-51.197v-17.066H238.952z M315.746,494.918H196.288
	v-17.066h119.459V494.918z M315.746,460.787H196.288v-17.066h119.459V460.787z M315.746,401.058v25.598h-17.066v-25.598
	c0-4.71-3.823-8.533-8.533-8.533h-8.533V221.87h8.533c4.71,0,8.533-3.823,8.533-8.533v-25.598h17.066v25.598
	c0,4.71,3.823,8.533,8.533,8.533h8.533v170.655h-8.533C319.569,392.525,315.746,396.348,315.746,401.058z M426.672,221.87h8.533
	v170.655h-8.533c-4.71,0-8.533,3.823-8.533,8.533v25.598h-17.066v-25.598c0-4.71-3.823-8.533-8.533-8.533h-8.533V221.87h8.533
	c4.71,0,8.533-3.823,8.533-8.533v-25.598h17.066v25.598C418.14,218.047,421.962,221.87,426.672,221.87z M477.869,409.591h8.533
	v17.066h-51.197v-17.066H477.869z M452.271,392.525V221.87h17.066v170.655H452.271z M384.009,204.805h-51.197v-17.066h51.197
	V204.805z M366.943,221.87v170.655h-17.066V221.87L366.943,221.87L366.943,221.87z M341.345,409.591h42.664v17.066h-51.197v-17.066
	H341.345z M494.934,494.918H332.812v-17.066h162.123V494.918z M494.934,443.722v17.066H332.812v-17.066H494.934z M486.402,204.805
	h-51.197v-17.066h51.197V204.805z M256.017,18.295l214.317,118.247H41.7L256.017,18.295z M17.1,170.673v-17.066h477.835v17.066H17.1
	z M25.632,409.591h51.197v17.066H25.632C25.632,426.656,25.632,409.591,25.632,409.591z M17.1,443.722h162.123v17.066H17.1
	C17.1,460.787,17.1,443.722,17.1,443.722z M17.1,477.853h162.123v17.066H17.1C17.1,494.918,17.1,477.853,17.1,477.853z"/>
<g>
</g>
<g>
</g>
<g>
</g>
<g>
</g>
<g>
</g>
<g>
</g>
<g>
</g>
<g>
</g>
<g>
</g>
<g>
</g>
<g>
</g>
<g>
</g>
<g>
</g>
<g>
</g>
<g>
</g>
</svg>
